<svg xmlns="http://www.w3.org/2000/svg" xmlns:xlink="http://www.w3.org/1999/xlink" viewBox="0,0,256,256" width="500px" height="500px"><g fill="#f9d689" fill-rule="nonzero" stroke="none" stroke-width="1" stroke-linecap="butt" stroke-linejoin="miter" stroke-miterlimit="10" stroke-dasharray="" stroke-dashoffset="0" font-family="none" font-weight="none" font-size="none" text-anchor="none" style="mix-blend-mode: normal"><g transform="scale(5.12,5.12)"><path d="M8.90039,2.9668c-3.2,0 -5.90039,2.59844 -5.90039,5.89844c0,3 2.19961,5.40078 5.09961,5.80078c-1,3.3 -0.1,6.99922 2.5,9.69922l0.80078,0.80078l4.29883,4.30078l3.60742,3.5332l4.29102,-4.33594l-8.69726,-8.69727c-1.4,-1.4 -1.4,-3.70156 0,-5.10156c1.187,-1.187 3.01834,-1.3563 4.40234,-0.5293l0.08398,-0.08399l4.25586,-4.25781c-2.545,-2.126 -5.90836,-2.75573 -8.94336,-1.92773c-0.4,-2.901 -2.79883,-5.09961 -5.79883,-5.09961zM40.90039,3.09961c-3,0 -5.40078,2.19961 -5.80078,5.09961c-3.3,-1 -6.99922,-0.1 -9.69922,2.5l-0.80078,0.80078l-4.29883,4.30078l-3.53516,3.60547l4.33594,4.29102l8.69922,-8.69727c1.4,-1.4 3.69961,-1.4 5.09961,0c1.187,1.187 1.3563,3.01834 0.5293,4.40234l0.08398,0.08398l4.25781,4.25586c2.126,-2.545 2.75574,-5.90641 1.92773,-8.94141c2.901,-0.4 5.10156,-2.80078 5.10156,-5.80078c0,-3.2 -2.60039,-5.90039 -5.90039,-5.90039zM30.69336,16.9668l-4.29102,4.33398l8.69727,8.69922c1.4,1.4 1.4,3.69961 0,5.09961c-1.187,1.187 -3.01834,1.35825 -4.40234,0.53125l-0.08398,0.08398l-4.25586,4.25586c2.545,2.126 5.90836,2.75574 8.94336,1.92773c0.4,2.901 2.79883,5.10156 5.79883,5.10156c3.2,0 5.90039,-2.60039 5.90039,-5.90039c0,-3 -2.19961,-5.39883 -5.09961,-5.79883c1,-3.3 0.1,-7.00117 -2.5,-9.70117l-0.80078,-0.79883l-4.29883,-4.30078zM10.0293,26.35742c-2.127,2.545 -2.75769,5.90836 -1.92969,8.94336c-2.9,0.4 -5.09961,2.79883 -5.09961,5.79883c0,3.2 2.60039,5.90039 5.90039,5.90039c3,0 5.39883,-2.19961 5.79883,-5.09961c3.3,1 7.00117,0.1 9.70117,-2.5l0.79883,-0.80078l4.30078,-4.29883l3.5332,-3.60742l-4.33398,-4.29102l-8.69922,8.69727c-1.4,1.4 -3.69961,1.4 -5.09961,0c-1.187,-1.187 -1.35825,-3.01834 -0.53125,-4.40234l-0.08399,-0.08398z"></path></g></g></svg>